<mxfile host="app.diagrams.net" modified="2023-11-13T07:46:31.439Z" agent="Mozilla/5.0 (Windows NT 10.0; Win64; x64) AppleWebKit/537.36 (KHTML, like Gecko) Chrome/119.0.0.0 Safari/537.36" version="22.0.8" etag="JVShK0EkQm1PyuCkBLi6" type="github">
  <diagram name="Страница — 1" id="7ipt6c0Cwv-hGQ4qa9YM">
    <mxGraphModel>
      <root>
        <mxCell id="0" />
        <mxCell id="1" parent="0" />
      </root>
    </mxGraphModel>
  </diagram>
</mxfile>
